<?xml version="1.0" encoding="utf-8"?>
<!-- Generator: Adobe Illustrator 24.0.1, SVG Export Plug-In . SVG Version: 6.00 Build 0)  -->
<svg version="1.1" id="Layer_1" xmlns="http://www.w3.org/2000/svg" xmlns:xlink="http://www.w3.org/1999/xlink" x="0px" y="0px"
	 viewBox="0 0 432 432" style="enable-background:new 0 0 432 432;" xml:space="preserve">
<style type="text/css">
	.st0{fill:#DC5048;}
	.st1{fill:#892E34;}
	.st2{fill:#DF9CA8;}
</style>
<g id="XMLID_158_">
	<path id="XMLID_44_" d="M240.97,190.63h4.39c1.51,0,2.86,0.21,4.07,0.64c1.2,0.42,2.23,1.03,3.08,1.82
		c0.85,0.79,1.5,1.74,1.95,2.86s0.68,2.36,0.68,3.72s-0.23,2.61-0.68,3.72c-0.45,1.12-1.1,2.07-1.94,2.86s-1.87,1.4-3.08,1.82
		c-1.21,0.42-2.57,0.64-4.08,0.64h-4.39V190.63z M245.23,207c1.33,0,2.49-0.18,3.48-0.53c0.99-0.36,1.82-0.86,2.47-1.51
		s1.14-1.42,1.46-2.32c0.32-0.9,0.48-1.89,0.48-2.97s-0.16-2.08-0.48-2.97c-0.32-0.9-0.81-1.67-1.46-2.32
		c-0.66-0.65-1.48-1.15-2.47-1.51s-2.15-0.53-3.48-0.53h-2.34V207H245.23z"/>
	<path id="XMLID_42_" d="M260.46,190.63h1.94v18.07h-1.94V190.63z"/>
	<path id="XMLID_40_" d="M276.8,208.92c-1.31,0-2.53-0.23-3.67-0.68s-2.12-1.09-2.95-1.91c-0.83-0.82-1.49-1.8-1.98-2.92
		c-0.49-1.13-0.73-2.37-0.73-3.73c0-1.35,0.24-2.59,0.73-3.72c0.49-1.13,1.15-2.11,1.99-2.94c0.84-0.82,1.83-1.46,2.95-1.91
		c1.13-0.45,2.33-0.68,3.63-0.68c1.56,0,2.97,0.29,4.24,0.86c1.27,0.58,2.3,1.49,3.1,2.75l-1.52,1.09c-1.28-2-3.22-3-5.82-3
		c-1.06,0-2.04,0.19-2.92,0.57c-0.89,0.38-1.66,0.91-2.31,1.59c-0.66,0.68-1.17,1.47-1.53,2.39s-0.55,1.92-0.55,3s0.19,2.08,0.56,3
		s0.88,1.71,1.53,2.39s1.42,1.2,2.31,1.59c0.89,0.38,1.87,0.57,2.94,0.57c1.03,0,1.94-0.14,2.74-0.43s1.48-0.67,2.05-1.16
		c0.57-0.49,1.02-1.05,1.36-1.7c0.34-0.64,0.56-1.32,0.66-2.03h-6.46v-1.7h8.53c-0.02,1.31-0.23,2.5-0.65,3.58s-1.01,1.99-1.77,2.75
		c-0.76,0.76-1.69,1.35-2.78,1.77C279.4,208.71,278.17,208.92,276.8,208.92z"/>
	<path id="XMLID_38_" d="M290.41,190.63h1.94v18.07h-1.94V190.63z"/>
	<path id="XMLID_36_" d="M302.66,192.33h-5.55v-1.7h13.02v1.7h-5.55v16.37h-1.91v-16.37H302.66z"/>
	<path id="XMLID_33_" d="M318.69,190.44h0.32l7.65,18.26h-2.02l-1.22-3.03h-9.14l-1.2,3.03h-1.89L318.69,190.44z M322.73,204.05
		l-3.19-8.05c-0.09-0.21-0.17-0.44-0.25-0.69s-0.15-0.48-0.23-0.69c-0.07-0.25-0.14-0.51-0.21-0.77c-0.09,0.27-0.17,0.52-0.24,0.77
		c-0.07,0.21-0.15,0.44-0.23,0.69c-0.08,0.25-0.16,0.48-0.25,0.69l-3.19,8.05H322.73z"/>
	<path id="XMLID_30_" d="M331.45,190.63h1.91V207h8.53v1.7h-10.45v-18.07H331.45z"/>
	<path id="XMLID_27_" d="M240.97,219.75h4.39c1.51,0,2.86,0.21,4.07,0.64c1.2,0.42,2.23,1.03,3.08,1.82
		c0.85,0.79,1.5,1.74,1.95,2.86s0.68,2.36,0.68,3.72s-0.23,2.61-0.68,3.72c-0.45,1.12-1.1,2.07-1.94,2.86s-1.87,1.4-3.08,1.82
		c-1.21,0.42-2.57,0.64-4.08,0.64h-4.39V219.75z M245.23,236.12c1.33,0,2.49-0.18,3.48-0.53c0.99-0.36,1.82-0.86,2.47-1.51
		s1.14-1.42,1.46-2.32c0.32-0.9,0.48-1.89,0.48-2.97s-0.16-2.08-0.48-2.97c-0.32-0.9-0.81-1.67-1.46-2.32
		c-0.66-0.65-1.48-1.15-2.47-1.51s-2.15-0.53-3.48-0.53h-2.34v14.67L245.23,236.12L245.23,236.12z"/>
	<path id="XMLID_24_" d="M268.62,238.03c-1.28,0-2.48-0.23-3.61-0.68c-1.13-0.45-2.12-1.09-2.95-1.9c-0.83-0.81-1.49-1.79-1.98-2.92
		c-0.49-1.13-0.73-2.38-0.73-3.75s0.24-2.61,0.73-3.75c0.49-1.13,1.15-2.11,1.98-2.92c0.83-0.82,1.82-1.45,2.95-1.9
		s2.34-0.68,3.61-0.68c1.29,0,2.5,0.23,3.63,0.68c1.12,0.45,2.11,1.09,2.95,1.9c0.84,0.81,1.51,1.79,1.99,2.92
		c0.49,1.13,0.73,2.38,0.73,3.75s-0.24,2.61-0.73,3.75c-0.49,1.13-1.15,2.11-1.99,2.92c-0.84,0.82-1.83,1.45-2.95,1.9
		C271.12,237.81,269.91,238.03,268.62,238.03z M268.62,236.33c1.06,0,2.04-0.19,2.92-0.57c0.89-0.38,1.66-0.91,2.31-1.59
		s1.16-1.47,1.53-2.39c0.36-0.92,0.55-1.92,0.55-3s-0.18-2.08-0.55-3c-0.36-0.92-0.87-1.71-1.53-2.39c-0.66-0.67-1.43-1.2-2.31-1.59
		c-0.89-0.38-1.86-0.57-2.92-0.57c-1.05,0-2.02,0.19-2.91,0.57s-1.67,0.91-2.31,1.59c-0.65,0.68-1.15,1.47-1.52,2.39
		c-0.36,0.92-0.55,1.92-0.55,3s0.18,2.08,0.55,3c0.36,0.92,0.87,1.71,1.52,2.39s1.42,1.2,2.31,1.59S267.57,236.33,268.62,236.33z"/>
	<path id="XMLID_21_" d="M291.4,238.03c-1.28,0-2.48-0.23-3.61-0.68c-1.13-0.45-2.12-1.09-2.95-1.9c-0.83-0.81-1.49-1.79-1.98-2.92
		c-0.49-1.13-0.73-2.38-0.73-3.75s0.24-2.61,0.73-3.75c0.49-1.13,1.15-2.11,1.98-2.92c0.83-0.82,1.82-1.45,2.95-1.9
		s2.34-0.68,3.61-0.68c1.29,0,2.5,0.23,3.63,0.68c1.12,0.45,2.11,1.09,2.95,1.9c0.84,0.81,1.51,1.79,1.99,2.92
		c0.49,1.13,0.73,2.38,0.73,3.75s-0.24,2.61-0.73,3.75c-0.49,1.13-1.15,2.11-1.99,2.92c-0.84,0.82-1.83,1.45-2.95,1.9
		C293.9,237.81,292.69,238.03,291.4,238.03z M291.4,236.33c1.06,0,2.04-0.19,2.92-0.57c0.89-0.38,1.66-0.91,2.31-1.59
		s1.16-1.47,1.53-2.39c0.36-0.92,0.55-1.92,0.55-3s-0.18-2.08-0.55-3c-0.36-0.92-0.87-1.71-1.53-2.39c-0.66-0.67-1.43-1.2-2.31-1.59
		c-0.89-0.38-1.86-0.57-2.92-0.57c-1.05,0-2.02,0.19-2.91,0.57s-1.67,0.91-2.31,1.59c-0.65,0.68-1.15,1.47-1.52,2.39
		c-0.36,0.92-0.55,1.92-0.55,3s0.18,2.08,0.55,3c0.36,0.92,0.87,1.71,1.52,2.39s1.42,1.2,2.31,1.59S290.35,236.33,291.4,236.33z"/>
	<path id="XMLID_18_" d="M317.65,237.82h-2.26l-3.48-4.92c-0.62,0.11-1.26,0.16-1.91,0.16h-2.15v4.76h-1.91v-18.07H310
		c1.24,0,2.33,0.16,3.26,0.49c0.93,0.33,1.71,0.79,2.34,1.38c0.63,0.59,1.1,1.3,1.42,2.11c0.32,0.82,0.48,1.71,0.48,2.68
		c0,1.36-0.32,2.55-0.94,3.56c-0.63,1.01-1.57,1.77-2.83,2.29L317.65,237.82z M309.89,231.36c1.03,0,1.9-0.12,2.61-0.37
		s1.28-0.59,1.73-1.04c0.44-0.44,0.77-0.97,0.97-1.57s0.31-1.26,0.31-1.97s-0.1-1.37-0.31-1.98c-0.2-0.61-0.53-1.14-0.97-1.58
		s-1.02-0.79-1.74-1.04s-1.58-0.37-2.59-0.37h-2.05v9.91L309.89,231.36L309.89,231.36z"/>
	<path id="XMLID_4_" d="M243.87,254.36c-0.14-0.14-0.28-0.31-0.42-0.5c-0.14-0.2-0.27-0.38-0.4-0.56c-0.14-0.2-0.28-0.4-0.42-0.61
		c0.02,0.25,0.04,0.5,0.08,0.74c0.02,0.21,0.04,0.43,0.05,0.67c0.02,0.23,0.03,0.44,0.03,0.64v12.2h-1.81v-18.26h0.32l10.79,12.76
		c0.12,0.16,0.26,0.33,0.41,0.52c0.15,0.19,0.29,0.37,0.41,0.55c0.14,0.2,0.28,0.4,0.42,0.61c-0.04-0.25-0.06-0.5-0.08-0.74
		c-0.02-0.21-0.03-0.43-0.04-0.67c-0.01-0.23-0.01-0.44-0.01-0.64v-12.2h1.78v18.26h-0.32L243.87,254.36z"/>
	<path id="XMLID_311_" d="M267.58,267.15c-0.92,0-1.78-0.13-2.57-0.4s-1.47-0.67-2.06-1.2s-1.04-1.2-1.37-1.99
		c-0.33-0.8-0.49-1.73-0.49-2.79v-11.91H263v11.77c0,1.61,0.41,2.82,1.22,3.61c0.82,0.8,1.93,1.2,3.35,1.2c1.4,0,2.51-0.4,3.34-1.2
		c0.82-0.8,1.23-2,1.23-3.61v-11.77h1.91v11.91c0,1.06-0.16,1.99-0.49,2.79c-0.33,0.8-0.78,1.46-1.37,1.99s-1.27,0.93-2.06,1.2
		C269.36,267.01,268.5,267.15,267.58,267.15z"/>
	<path id="XMLID_313_" d="M281.03,248.65h0.27l6.19,10.45c0.23,0.41,0.43,0.82,0.61,1.22c0.09,0.21,0.19,0.43,0.29,0.64
		c0.11-0.21,0.2-0.42,0.29-0.64c0.09-0.19,0.18-0.4,0.28-0.61s0.21-0.42,0.33-0.61l6.19-10.45h0.24l1.99,18.29h-1.94l-1.25-11.03
		c-0.04-0.28-0.06-0.58-0.08-0.9c-0.02-0.32-0.04-0.61-0.05-0.88c-0.02-0.32-0.03-0.63-0.03-0.93c-0.11,0.3-0.22,0.6-0.35,0.9
		c-0.11,0.25-0.23,0.53-0.37,0.84c-0.14,0.31-0.28,0.59-0.42,0.84l-4.78,8.13h-0.21l-4.76-8.13c-0.14-0.25-0.28-0.52-0.43-0.82
		c-0.14-0.3-0.27-0.58-0.37-0.85l-0.37-0.93c0,0.32-0.01,0.64-0.03,0.96c-0.02,0.28-0.04,0.58-0.05,0.89s-0.04,0.61-0.08,0.89
		l-1.25,11.03h-1.86L281.03,248.65z"/>
	<path id="XMLID_315_" d="M303.25,248.86h6.14c0.85,0,1.58,0.11,2.21,0.35c0.62,0.23,1.13,0.55,1.54,0.96s0.71,0.88,0.92,1.42
		c0.2,0.54,0.31,1.11,0.31,1.72c0,0.9-0.2,1.67-0.58,2.29c-0.39,0.62-0.98,1.06-1.75,1.3c1.17,0.28,2.08,0.84,2.74,1.67
		c0.66,0.83,0.98,1.85,0.98,3.05c0,0.74-0.12,1.44-0.35,2.08c-0.23,0.65-0.58,1.21-1.06,1.68c-0.48,0.48-1.08,0.85-1.8,1.13
		c-0.72,0.27-1.55,0.41-2.51,0.41h-6.78v-18.06H303.25z M309.52,256.28c1.05,0,1.79-0.27,2.25-0.8s0.68-1.22,0.68-2.06
		c0-0.41-0.06-0.79-0.17-1.14c-0.12-0.35-0.3-0.65-0.56-0.91c-0.26-0.26-0.58-0.46-0.98-0.6c-0.4-0.14-0.89-0.21-1.48-0.21h-4.09
		v5.71h4.35V256.28z M309.89,265.23c0.69,0,1.29-0.09,1.78-0.28c0.5-0.19,0.9-0.44,1.21-0.77s0.54-0.71,0.69-1.16
		c0.15-0.44,0.23-0.93,0.23-1.46c0-1.06-0.32-1.94-0.97-2.63s-1.66-1.04-3.04-1.04h-4.63v7.34H309.89z"/>
	<path id="XMLID_319_" d="M320.76,248.86h11v1.7h-9.09v8.45h8.11v1.7h-8.11v4.52h9.46v1.7h-11.38v-18.07H320.76z"/>
	<path id="XMLID_321_" d="M349.23,266.93h-2.26l-3.48-4.92c-0.62,0.11-1.26,0.16-1.91,0.16h-2.15v4.76h-1.91v-18.07h4.07
		c1.24,0,2.33,0.16,3.26,0.49c0.93,0.33,1.71,0.79,2.34,1.38c0.63,0.59,1.1,1.3,1.42,2.11c0.32,0.82,0.48,1.71,0.48,2.68
		c0,1.36-0.32,2.55-0.94,3.56c-0.63,1.01-1.57,1.77-2.83,2.29L349.23,266.93z M341.47,260.48c1.03,0,1.9-0.12,2.61-0.37
		s1.28-0.59,1.73-1.04c0.44-0.44,0.77-0.97,0.97-1.57s0.31-1.26,0.31-1.97c0-0.71-0.1-1.37-0.31-1.98c-0.2-0.61-0.53-1.14-0.97-1.58
		s-1.02-0.79-1.74-1.04s-1.58-0.37-2.59-0.37h-2.05v9.91h2.04V260.48z"/>
</g>
<g>
	<g>
		<g id="XMLID_3_">
			<path id="XMLID_259_" class="st0" d="M147.8,143.96l-61.74,49.98c-5.93,4.8-2.54,14.39,5.09,14.39c4.47,0,8.1,3.62,8.1,8.1v3.62
				h7.89c0.17-25.13,20.59-45.45,45.75-45.45l0,0v-32.44C151.09,142.16,149.28,142.76,147.8,143.96z"/>
			<path id="XMLID_239_" class="st0" d="M198.65,220.04c0,0.11,0.01,0.21,0.01,0.32c0,10.28-3.3,19.58-9.1,29.04l-10.48,18.33h18.76
				c4.47,0,8.1-3.62,8.1-8.1v-39.59L198.65,220.04L198.65,220.04z"/>
			<path id="XMLID_8_" class="st0" d="M153.87,194.04c13.69,0.5,24.71,11.4,25.41,25.03h10.25c-0.01-0.27-0.01-0.53-0.02-0.8
				c-0.91-19.06-16.62-34.35-35.65-34.85v10.62H153.87z"/>
			<path id="XMLID_9_" class="st0" d="M151.92,246.87c-13.96-0.5-25.16-11.83-25.45-25.85h-10.22c0.2,7.83,2.93,14.7,8.61,24.9
				l22.96,40.94c0.91,1.69,2.46,2.66,4.1,2.93L151.92,246.87L151.92,246.87z"/>
		</g>
		<g id="XMLID_2_">
			<path id="XMLID_256_" class="st1" d="M198.65,220.04h7.28v-3.62c0-4.47,3.62-8.1,8.1-8.1h0.61c7.63,0,11.02-9.59,5.09-14.39
				l-61.74-49.98c-1.48-1.2-3.29-1.8-5.09-1.8v32.44C178.06,174.6,198.48,194.92,198.65,220.04z"/>
			<path id="XMLID_249_" class="st1" d="M107.13,220.36c0-0.11,0.01-0.21,0.01-0.32h-7.89v39.59c0,4.47,3.62,8.1,8.1,8.1h19.24
				l-11.42-19.63C109.97,239.02,107.13,230.64,107.13,220.36z"/>
			<path id="XMLID_6_" class="st1" d="M126.51,219.07c0.7-13.64,11.73-24.54,25.42-25.03v-10.6c-19.46,0.51-35.14,16.17-35.67,35.63
				H126.51z"/>
			<path id="XMLID_13_" class="st1" d="M179.32,221.01c-0.29,14.02-11.49,25.34-25.45,25.85v42.91c1.65-0.28,3.19-1.25,4.1-2.93
				l24.02-42.75c4.81-9.64,7.37-15.56,7.55-23.08H179.32z"/>
		</g>
	</g>
	<circle id="XMLID_235_" class="st2" cx="152.89" cy="220.04" r="14.95"/>
</g>
</svg>
