<?xml version="1.0" encoding="utf-8"?>
<!-- Generator: Adobe Illustrator 24.0.1, SVG Export Plug-In . SVG Version: 6.00 Build 0)  -->
<svg version="1.1" id="Layer_1" xmlns="http://www.w3.org/2000/svg" xmlns:xlink="http://www.w3.org/1999/xlink" x="0px" y="0px"
	 viewBox="0 0 720 360" style="enable-background:new 0 0 720 360;" xml:space="preserve">
<style type="text/css">
	.st0{fill:#F36E44;}
</style>
<g id="XMLID_3_">
	<g>
		<path class="st0" d="M370.05,147.24v17.17l-51.75,67.28h51.75v17.59h-75.88V232.1l51.96-67.49h-50.74v-17.38L370.05,147.24
			L370.05,147.24z"/>
		<path class="st0" d="M407.9,131.49h-20.04v-19.84h20.04V131.49z M388.46,147.24h18.82v102.05h-18.82V147.24z"/>
		<path class="st0" d="M465.4,250.92c-7.38,0-14.74-1.01-21.7-3.06v40.28h-18.8V178.53c0-7.77,3.05-32.93,42.33-32.93
			c16.76,0,45.2,6.95,45.2,53.79C512.43,241.93,486.88,250.92,465.4,250.92z M467.24,161.96c-15.55,0-23.53,5.12-23.53,15.34v52.77
			c6.95,2.66,14.12,4.09,21.7,4.09c14.71,0,28.22-4.09,28.22-34.77C493.63,166.26,479.52,161.96,467.24,161.96z"/>
		<path class="st0" d="M569.9,250.92c-7.36,0-14.73-1.01-21.68-3.06v40.28H529.4V178.53c0-7.77,3.07-32.93,42.33-32.93
			c16.79,0,45.22,6.95,45.22,53.79C616.96,241.93,591.36,250.92,569.9,250.92z M571.73,161.96c-15.54,0-23.51,5.12-23.51,15.34
			v52.77c6.95,2.66,14.1,4.09,21.68,4.09c14.72,0,28.22-4.09,28.22-34.77C598.13,166.26,584.01,161.96,571.73,161.96z"/>
		<path class="st0" d="M653.13,249.29H634.3v-93.46c1.03-0.41,22.3-10.23,49.69-10.23v17.18c-12.07,0.21-22.9,2.25-30.88,4.3v82.21
			H653.13z"/>
	</g>
	<g>
		<path class="st0" d="M267.95,164.6l-54.65-41.19l-54.66,41.19h30.37c-2.27,13.4-22.98,23.33-37.03,23.33l0,0
			c-13.39,0-33.05-9-36.05-21.48l-25.3,19.12l-24.03-18.18c3.12,31.86,25.74,58.05,55.74,66.51l29.64,61.17l29.64-61.17
			c30.88-8.71,53.91-36.19,55.94-69.3H267.95z"/>
		<path class="st0" d="M90.64,177.47l54.66-41.34h-29.51c2.83-12.73,22.66-22.62,36.2-22.62l0,0c13.12,0,33.19,9.34,36.44,21.46
			l24.87-18.74l24.07,18.15c-3.95-38.76-45.6-69.45-85.39-69.45l0,0c-40.39,0-82.33,31.62-85.46,71.2H36L90.64,177.47z"/>
	</g>
</g>
</svg>
